<?xml version="1.0" encoding="UTF-8"?>
<svg version="1.1" xmlns="http://www.w3.org/2000/svg" width="560" height="560">
<path d="M0 0 C0.88816406 0.25168945 1.77632813 0.50337891 2.69140625 0.76269531 C50.32692698 14.38508343 90.25202176 47.04397618 114.6875 89.875 C121.47783008 102.16747696 126.83378745 114.64548802 130.8125 128.125 C131.22943115 129.53555664 131.22943115 129.53555664 131.65478516 130.97460938 C132.49939552 133.97058575 133.26542511 136.97515703 134 140 C134.27956543 141.13091064 134.55913086 142.26182129 134.84716797 143.42700195 C137.3297392 154.7890851 137.52494266 166.02284514 137.50097656 177.62329102 C137.50001062 180.90146621 137.5416391 184.17724231 137.5859375 187.45507812 C137.75370463 216.97006098 130.21327007 245.15959188 116 271 C115.67531738 271.60634277 115.35063477 272.21268555 115.01611328 272.83740234 C110.39092804 281.46847227 105.08410861 289.32644433 99 297 C98.33742188 297.86753906 97.67484375 298.73507812 96.9921875 299.62890625 C68.34085531 336.17841937 24.2404894 362.09730101 -22 368 C-30.64969618 368.89359451 -39.31975454 369.49614432 -48 370 C-48.03440186 370.66717041 -48.06880371 371.33434082 -48.10424805 372.02172852 C-50.45998646 414.76468448 -63.08418012 456.48294248 -92 489 C-92.70382812 489.81210937 -93.40765625 490.62421875 -94.1328125 491.4609375 C-96.3808808 494.01519431 -98.67604967 496.51461209 -101 499 C-101.87011719 499.93585938 -102.74023438 500.87171875 -103.63671875 501.8359375 C-131.60595027 531.22502569 -175.78258253 553.99581952 -216.71069336 555.29052734 C-218.67029274 555.31678174 -220.63007347 555.33152165 -222.58984375 555.3359375 C-223.65505753 555.3425943 -224.7202713 555.3492511 -225.81776428 555.35610962 C-228.0589121 555.36616269 -230.30008942 555.37092894 -232.54125977 555.37060547 C-235.89847688 555.37494951 -239.25434506 555.41127003 -242.61132812 555.44921875 C-260.66787063 555.54480399 -277.75620598 553.39159035 -294.875 547.4375 C-295.86129395 547.09944336 -296.84758789 546.76138672 -297.86376953 546.41308594 C-320.4108172 538.42580773 -341.0571588 526.87557146 -359 511 C-359.51900879 510.54125488 -360.03801758 510.08250977 -360.57275391 509.60986328 C-394.92243031 479.06674733 -419.51853066 435.45810707 -423.23449707 389.07284546 C-423.53639117 383.20411555 -423.57179139 377.34354092 -423.52148438 371.46826172 C-423.50000106 368.50014648 -423.52146115 365.53445024 -423.546875 362.56640625 C-423.57605463 344.18371047 -420.86184533 326.55296606 -414.75 309.1875 C-414.35796387 308.04933838 -413.96592773 306.91117676 -413.56201172 305.73852539 C-396.68321374 257.74731621 -361.44144723 220.11493879 -315.9375 197.875 C-298.7202502 189.7202019 -280.78908576 184.890471 -262 182 C-261.3203418 181.89469971 -260.64068359 181.78939941 -259.94042969 181.6809082 C-254.93430907 180.97642083 -250.04003252 180.8807232 -245 180.9375 C-244.22527344 180.94201172 -243.45054687 180.94652344 -242.65234375 180.95117188 C-240.76819476 180.96280242 -238.88408635 180.98073094 -237 181 C-237.04640625 180.05125 -237.0928125 179.1025 -237.140625 178.125 C-238.74975725 129.11402546 -215.13359171 83.40691244 -182.56640625 48.3828125 C-168.85286985 34.25371439 -152.39569973 23.06566939 -135 14 C-134.39607422 13.68434082 -133.79214844 13.36868164 -133.16992188 13.04345703 C-122.23271637 7.42178143 -110.78896331 3.42932891 -99 0 C-98.14438477 -0.26119629 -97.28876953 -0.52239258 -96.40722656 -0.79150391 C-67.19885974 -9.36436355 -29.06365047 -8.8142045 0 0 Z M-235 183 C-236.02501288 203.9558188 -231.85188544 224.25816914 -225 244 C-224.77086914 244.66257813 -224.54173828 245.32515625 -224.30566406 246.0078125 C-210.11298756 286.05217117 -180.42773903 320.51295125 -144 342 C-142.89519287 342.65186279 -142.89519287 342.65186279 -141.76806641 343.31689453 C-114.44557065 359.13932316 -81.76347303 368.62179719 -50 368 C-50.6143665 339.67770434 -56.44166849 312.47170933 -69 287 C-69.35465332 286.27296875 -69.70930664 285.5459375 -70.07470703 284.796875 C-75.14771165 274.50025024 -80.92714393 265.04230841 -88 256 C-88.62165039 255.20480957 -88.62165039 255.20480957 -89.25585938 254.39355469 C-120.34880769 215.17787492 -164.7241442 189.68541153 -214.4921875 183.26953125 C-221.32297785 182.74467097 -228.15527972 182.85084145 -235 183 Z " fill="#2E6F3F" transform="translate(423,5)"/>
<path d="M0 0 C0.75796875 -0.01224609 1.5159375 -0.02449219 2.296875 -0.03710938 C4.24101857 -0.04229837 6.18475009 0.06440888 8.125 0.1875 C10.61092958 2.67342958 10.42060998 3.56812898 10.58203125 7.0078125 C10.66831787 8.50465576 10.66831787 8.50465576 10.75634766 10.03173828 C10.84601807 11.65571533 10.84601807 11.65571533 10.9375 13.3125 C14.41627245 63.37657302 37.21317871 107.4444166 74.125 141.1875 C82.47116162 148.38006414 91.64602615 154.59628905 101.125 160.1875 C101.86153809 160.6220752 102.59807617 161.05665039 103.35693359 161.50439453 C129.15217489 176.4423917 156.99706206 183.31828796 186.40429688 186.23779297 C187.52126953 186.34881348 188.63824219 186.45983398 189.7890625 186.57421875 C190.79404785 186.66920654 191.7990332 186.76419434 192.83447266 186.86206055 C195.125 187.1875 195.125 187.1875 196.125 188.1875 C199.17060718 232.22398411 179.8215575 277.21709057 151.56933594 310.22338867 C121.50916865 344.5149751 77.62790229 371.15508295 31.23899841 374.38867188 C28.33613188 374.4805003 25.43945581 374.51689338 22.53515625 374.5234375 C21.46994247 374.5300943 20.4047287 374.5367511 19.30723572 374.54360962 C17.0660879 374.55366269 14.82491058 374.55842894 12.58374023 374.55810547 C9.22652312 374.56244951 5.87065494 374.59877003 2.51367188 374.63671875 C-15.54287063 374.73230399 -32.63120598 372.57909035 -49.75 366.625 C-50.73629395 366.28694336 -51.72258789 365.94888672 -52.73876953 365.60058594 C-75.2858172 357.61330773 -95.9321588 346.06307146 -113.875 330.1875 C-114.39400879 329.72875488 -114.91301758 329.27000977 -115.44775391 328.79736328 C-149.79743031 298.25424733 -174.39353066 254.64560707 -178.10949707 208.26034546 C-178.41139117 202.39161555 -178.44679139 196.53104092 -178.39648438 190.65576172 C-178.37500106 187.68764648 -178.39646115 184.72195024 -178.421875 181.75390625 C-178.45105463 163.37121047 -175.73684533 145.74046606 -169.625 128.375 C-169.23296387 127.23683838 -168.84092773 126.09867676 -168.43701172 124.92602539 C-151.55821374 76.93481621 -116.31644723 39.30243879 -70.8125 17.0625 C-48.98437975 6.72380389 -24.26931721 0.02128887 0 0 Z " fill="#2B49BE" transform="translate(177.875,185.8125)"/>
</svg>
